<svg xmlns="http://www.w3.org/2000/svg" viewBox="0 0 512 512" width="512" height="512">
  <defs>
    <radialGradient id="bg1" cx="50%" cy="50%" r="50%">
      <stop offset="0%" style="stop-color:#f97316;stop-opacity:0.1"/>
      <stop offset="100%" style="stop-color:#000000;stop-opacity:1"/>
    </radialGradient>
    <filter id="glow"><feGaussianBlur stdDeviation="4" result="blur"/><feMerge><feMergeNode in="blur"/><feMergeNode in="SourceGraphic"/></feMerge></filter>
    <filter id="blur2"><feGaussianBlur stdDeviation="20"/></filter>
  </defs>
  <rect width="512" height="512" fill="#000000"/>
  <rect width="512" height="512" fill="url(#bg1)"/>
  <circle cx="256" cy="256" r="180" fill="#f97316" opacity="0.05" filter="url(#blur2)"/>
  
        <path d="M256 100 C256 100 180 200 180 300 C180 360 210 400 256 420 C302 400 332 360 332 300 C332 200 256 100 256 100 Z" fill="#f97316" opacity="0.8" filter="url(#glow)"/>
        <path d="M256 180 C256 180 220 240 220 310 C220 350 235 380 256 390 C277 380 292 350 292 310 C292 240 256 180 256 180 Z" fill="#fbbf24" opacity="0.6" filter="url(#glow)"/>
</svg>